<?xml version="1.0" encoding="UTF-8" standalone="no"?>
<svg
   xmlns:dc="http://purl.org/dc/elements/1.1/"
   xmlns:cc="http://creativecommons.org/ns#"
   xmlns:rdf="http://www.w3.org/1999/02/22-rdf-syntax-ns#"
   xmlns:svg="http://www.w3.org/2000/svg"
   xmlns="http://www.w3.org/2000/svg"
   xmlns:sodipodi="http://sodipodi.sourceforge.net/DTD/sodipodi-0.dtd"
   xmlns:inkscape="http://www.inkscape.org/namespaces/inkscape"
   version="1.1"
   id="afcf7ba7-9a9d-4a96-99b1-c6a86c14369d"
   x="0px"
   y="0px"
   viewBox="0 0 1124.7 770.8"
   style="enable-background:new 0 0 1124.7 770.8;"
   xml:space="preserve"
   sodipodi:docname="Robotel2.svg"
   inkscape:version="1.0.1 (3bc2e813f5, 2020-09-07, custom)"><metadata
   id="metadata81"><rdf:RDF><cc:Work
       rdf:about=""><dc:format>image/svg+xml</dc:format><dc:type
         rdf:resource="http://purl.org/dc/dcmitype/StillImage" /><dc:title></dc:title></cc:Work></rdf:RDF></metadata><defs
   id="defs79" /><sodipodi:namedview
   pagecolor="#ffffff"
   bordercolor="#666666"
   borderopacity="1"
   objecttolerance="10"
   gridtolerance="10"
   guidetolerance="10"
   inkscape:pageopacity="0"
   inkscape:pageshadow="2"
   inkscape:window-width="1366"
   inkscape:window-height="746"
   id="namedview77"
   showgrid="false"
   inkscape:zoom="0.77192528"
   inkscape:cx="562.34998"
   inkscape:cy="385.39999"
   inkscape:window-x="0"
   inkscape:window-y="22"
   inkscape:window-maximized="1"
   inkscape:current-layer="afcf7ba7-9a9d-4a96-99b1-c6a86c14369d" />
<style
   type="text/css"
   id="style2">
	.st0{fill:#4A1217;enable-background:new    ;}
	.st1{fill:#DB7131;}
	.st2{opacity:0.1;enable-background:new    ;}
	.st3{opacity:0.3;enable-background:new    ;}
	.st4{fill:#FFFFFF;}
</style>
<path
   class="st0"
   d="M1060.8,437.4c-37.7,47.9-23,117.8,0.9,173.9c8,18.8,17.1,38.6,13.7,58.7c-4.1,24.6-26.1,42.6-49.1,52.1  c-42,17.4-92.3,13.2-130.9-10.8c-33.4-20.8-57.3-54.5-91.2-74.3c-56.8-33.2-129.1-20.6-190.7,2.2c-43.6,16.2-91.3,37.2-134.7,20.3  c-30.5-11.9-51.6-40.8-63.1-71.5c-5.5-14.8-9.6-30.8-20.2-42.6c-6.3-7-14.5-11.9-22.9-16.1c-76.9-38.1-174-17.7-248.6-60  C73.5,440.9,41.3,387,27,330.8s-12.6-115-9-172.9c2.6-41.1,7.2-85,33.5-116.7C79.2,7.7,126.9-4.8,170,1.6s82.2,29.1,116.5,55.9  c42.9,33.5,82.8,75.1,135.5,88.7c35.9,9.2,73.7,4.2,110.7,2.4c61.9-2.9,123.9,3.6,185.4,10.7c58.9,6.8,118.3,14.3,174.5,33.5  c39.7,13.6,71.6,38.2,109.1,55.4c24.5,11.2,51.1,14.3,74.3,28.6c28.5,17.6,54.7,48.2,47.4,84C1116.5,394.9,1080.8,412,1060.8,437.4z  "
   id="path4"
   style="opacity:1;fill:#ffffff;fill-opacity:.1" />
<path
   class="st1"
   d="M695.8,112.9h127.7c7.2,0,13,5.8,13,13v45.3c0,7.2-5.8,13-13,13H695.8c-7.2,0-13-5.8-13-13v-45.3  C682.8,118.7,688.6,112.9,695.8,112.9z"
   id="path6" />
<rect
   x="695.1"
   y="173.2"
   class="st2"
   width="129.1"
   height="1.3"
   id="rect8" />
<rect
   x="695.1"
   y="124"
   class="st3"
   width="129.1"
   height="49"
   id="rect10" />
<circle
   class="st2"
   cx="725.1"
   cy="149.5"
   r="17.8"
   id="circle12" />
<circle
   class="st2"
   cx="794.2"
   cy="149.5"
   r="17.8"
   id="circle14" />
<rect
   x="746.3"
   y="184.1"
   class="st1"
   width="26.7"
   height="15.6"
   id="rect16" />
<rect
   x="704"
   y="195.3"
   class="st1"
   width="111.3"
   height="89.1"
   id="rect18" />
<rect
   x="701.8"
   y="302.1"
   class="st1"
   width="115.8"
   height="11.1"
   id="rect20" />
<polygon
   class="st1"
   points="720.7,340 720.7,353.3 720.7,373.4 720.7,384.5 720.7,391.2 740.7,391.2 740.7,384.5 740.7,373.4   740.7,353.3 740.7,340 740.7,324.4 720.7,324.4 "
   id="polygon22" />
<polygon
   class="st1"
   points="780.8,324.4 780.8,340 780.8,353.3 780.8,373.4 780.8,384.5 780.8,391.2 800.8,391.2 800.8,384.5   800.8,373.4 800.8,353.3 800.8,340 800.8,324.4 "
   id="polygon24" />
<path
   class="st1"
   d="M688.8,215.3v20.6c-5.5,1-10.6,3.4-14.8,7.1c-3.9,3.6-6.9,8-8.8,12.9c-2.5,6.3-3.9,13-4.3,19.7  c-0.6,8.8-0.2,17.7,1.2,26.5h-22.3c-0.9-10.6-0.7-21.3,0.6-31.9c1.1-8.8,3.5-17.3,7.1-25.3c6.4-13.5,15.6-20.9,23.7-24.9  C676.7,217.2,682.7,215.6,688.8,215.3z"
   id="path26" />
<rect
   x="720.7"
   y="324.4"
   class="st3"
   width="20"
   height="15.6"
   id="rect28" />
<rect
   x="720.7"
   y="353.3"
   class="st3"
   width="20"
   height="20"
   id="rect30" />
<rect
   x="720.7"
   y="384.5"
   class="st3"
   width="20"
   height="6.7"
   id="rect32" />
<rect
   x="780.8"
   y="324.4"
   class="st3"
   width="20"
   height="15.6"
   id="rect34" />
<rect
   x="780.8"
   y="353.3"
   class="st3"
   width="20"
   height="20"
   id="rect36" />
<rect
   x="780.8"
   y="384.5"
   class="st3"
   width="20"
   height="6.7"
   id="rect38" />
<path
   class="st3"
   d="M688.8,215.3v20.6c-5.5,1-10.6,3.4-14.8,7.1l-2.8-23C676.7,217.2,682.7,215.6,688.8,215.3z"
   id="path40" />
<path
   class="st3"
   d="M665.2,255.9c-2.5,6.3-3.9,13-4.3,19.7l-20.4-5.5c1.1-8.8,3.5-17.3,7.1-25.3L665.2,255.9z"
   id="path42" />
<path
   class="st1"
   d="M830.5,215.3v20.6c5.5,1,10.6,3.4,14.8,7.1c3.9,3.6,6.9,8,8.8,12.9c2.5,6.3,3.9,13,4.3,19.7  c0.6,8.8,0.2,17.7-1.2,26.5h22.3c0.9-10.6,0.7-21.3-0.6-31.9c-1.1-8.8-3.5-17.3-7.1-25.3c-6.4-13.5-15.6-20.9-23.7-24.9  C842.6,217.2,836.6,215.6,830.5,215.3z"
   id="path44" />
<path
   class="st3"
   d="M830.5,215.3v20.6c5.5,1,10.6,3.4,14.8,7.1l2.8-23C842.6,217.2,836.6,215.6,830.5,215.3z"
   id="path46" />
<path
   class="st3"
   d="M854.1,255.9c2.5,6.3,3.9,13,4.3,19.7l20.4-5.5c-1.1-8.8-3.5-17.3-7.1-25.3L854.1,255.9z"
   id="path48" />
<rect
   x="746.3"
   y="184.1"
   class="st2"
   width="26.7"
   height="1.8"
   id="rect50" />
<path
   class="st2"
   d="M817.3,211.1v37.3c-1.3-1.4-2.1-3.3-2.1-5.3v-26.7C815.2,214.4,816,212.6,817.3,211.1z"
   id="path52" />
<path
   class="st2"
   d="M704.4,213.6v27.9c-0.1,1.8-0.9,3.4-2.1,4.7v-37.4C703.5,210.1,704.3,211.8,704.4,213.6z"
   id="path54" />
<rect
   x="709.6"
   y="284.3"
   class="st2"
   width="100.2"
   height="1.3"
   id="rect56" />
<rect
   x="707.3"
   y="313.2"
   class="st2"
   width="49"
   height="1"
   id="rect58" />
<rect
   x="760.8"
   y="313.2"
   class="st2"
   width="49"
   height="1"
   id="rect60" />
<rect
   x="712.8"
   y="47"
   class="st1"
   width="7.7"
   height="65.9"
   id="rect62" />
<rect
   x="800.7"
   y="47"
   class="st1"
   width="7.7"
   height="65.9"
   id="rect64" />
<circle
   class="st2"
   cx="716.4"
   cy="47.5"
   r="8.7"
   id="circle66" />
<circle
   class="st1"
   cx="716.4"
   cy="47"
   r="8.7"
   id="circle68" />
<circle
   class="st2"
   cx="804.8"
   cy="47.5"
   r="8.7"
   id="circle70" />
<circle
   class="st1"
   cx="804.8"
   cy="47"
   r="8.7"
   id="circle72" />

</svg>
