<?xml version="1.0" encoding="UTF-8" standalone="no"?>
<svg
   xmlns:dc="http://purl.org/dc/elements/1.1/"
   xmlns:cc="http://creativecommons.org/ns#"
   xmlns:rdf="http://www.w3.org/1999/02/22-rdf-syntax-ns#"
   xmlns:svg="http://www.w3.org/2000/svg"
   xmlns="http://www.w3.org/2000/svg"
   xmlns:xlink="http://www.w3.org/1999/xlink"
   xmlns:sodipodi="http://sodipodi.sourceforge.net/DTD/sodipodi-0.dtd"
   xmlns:inkscape="http://www.inkscape.org/namespaces/inkscape"
   id="ae37f038-3a9e-4b82-ad68-fc94ba16af2a"
   data-name="Layer 1"
   width="1096"
   height="574.74"
   viewBox="0 0 1096 574.74"
   version="1.1"
   sodipodi:docname="undraw_contact_us_15o2.svg"
   inkscape:version="1.0.2 (e86c8708, 2021-01-15)">
  <metadata
     id="metadata462">
    <rdf:RDF>
      <cc:Work
         rdf:about="">
        <dc:format>image/svg+xml</dc:format>
        <dc:type
           rdf:resource="http://purl.org/dc/dcmitype/StillImage" />
      </cc:Work>
    </rdf:RDF>
  </metadata>
  <sodipodi:namedview
     pagecolor="#ffffff"
     bordercolor="#666666"
     borderopacity="1"
     objecttolerance="10"
     gridtolerance="10"
     guidetolerance="10"
     inkscape:pageopacity="0"
     inkscape:pageshadow="2"
     inkscape:window-width="1386"
     inkscape:window-height="798"
     id="namedview460"
     showgrid="false"
     inkscape:zoom="0.70563126"
     inkscape:cx="322.6219"
     inkscape:cy="334.46349"
     inkscape:window-x="33"
     inkscape:window-y="25"
     inkscape:window-maximized="0"
     inkscape:current-layer="ae37f038-3a9e-4b82-ad68-fc94ba16af2a" />
  <defs
     id="defs123">
    <linearGradient
       id="eb6c86d6-45fa-49e0-9a60-1b0612516196"
       x1="819.07"
       y1="732.58"
       x2="819.07"
       y2="560.46"
       gradientUnits="userSpaceOnUse">
      <stop
         offset="0"
         stop-color="gray"
         stop-opacity="0.25"
         id="stop10" />
      <stop
         offset="0.54"
         stop-color="gray"
         stop-opacity="0.12"
         id="stop12" />
      <stop
         offset="1"
         stop-color="gray"
         stop-opacity="0.1"
         id="stop14" />
    </linearGradient>
    <pattern
       id="ad310e25-2b04-44c8-bb7b-982389166780"
       data-name="New Pattern 3"
       width="36.88"
       height="49.48"
       patternUnits="userSpaceOnUse"
       viewBox="0 0 36.88 49.48">
      <rect
         width="36.88"
         height="49.48"
         fill="none"
         id="rect17" />
      <path
         d="M4.33,13.19c4.5,0,4.51-7,0-7s-4.52,7,0,7Z"
         id="path19" />
      <path
         d="M4.51,17.16c4.51,0,4.52-7,0-7s-4.51,7,0,7Z"
         id="path21" />
      <path
         d="M4.51,20.94c4.51,0,4.52-7,0-7s-4.51,7,0,7Z"
         id="path23" />
      <path
         d="M3.38,24.72c4.51,0,4.51-7,0-7s-4.51,7,0,7Z"
         id="path25" />
      <path
         d="M1.09,28.29l.2.38a3.52,3.52,0,0,0,4.78,1.25,3.58,3.58,0,0,0,1.26-4.79l-.19-.37A3.52,3.52,0,0,0,2.35,23.5a3.59,3.59,0,0,0-1.26,4.79Z"
         id="path27" />
      <path
         d="M1.49,30.1l.18.57a3.73,3.73,0,0,0,1.61,2.09,3.59,3.59,0,0,0,2.7.35A3.54,3.54,0,0,0,8.42,28.8l-.18-.56a3.68,3.68,0,0,0-1.61-2.1,3.61,3.61,0,0,0-2.69-.35A3.56,3.56,0,0,0,1.49,30.1Z"
         id="path29" />
      <path
         d="M1.58,33.88v.38a3.54,3.54,0,0,0,3.5,3.5,3.56,3.56,0,0,0,3.5-3.5v-.38a3.54,3.54,0,0,0-3.5-3.5,3.57,3.57,0,0,0-3.5,3.5Z"
         id="path31" />
      <path
         d="M4.89,42.3c4.51,0,4.51-7,0-7s-4.51,7,0,7Z"
         id="path33" />
      <path
         d="M1.77,42v.19a3.54,3.54,0,0,0,3.5,3.5,3.56,3.56,0,0,0,3.5-3.5V42a3.54,3.54,0,0,0-3.5-3.5A3.56,3.56,0,0,0,1.77,42Z"
         id="path35" />
      <path
         d="M6,49.29c4.5,0,4.51-7,0-7s-4.52,7,0,7Z"
         id="path37" />
      <path
         d="M10,14.14c4.5,0,4.51-7,0-7s-4.52,7,0,7Z"
         id="path39" />
      <path
         d="M6.59,20.94c4.51,0,4.52-7,0-7s-4.51,7,0,7Z"
         id="path41" />
      <path
         d="M8.48,27c4.51,0,4.51-7,0-7s-4.51,7,0,7Z"
         id="path43" />
      <path
         d="M8.48,29.26c4.51,0,4.51-7,0-7s-4.51,7,0,7Z"
         id="path45" />
      <path
         d="M14.91,33.79c4.5,0,4.51-7,0-7s-4.51,7,0,7Z"
         id="path47" />
      <path
         d="M9.81,38.52c4.5,0,4.51-7,0-7s-4.52,7,0,7Z"
         id="path49" />
      <path
         d="M10.56,45.13c4.51,0,4.51-7,0-7s-4.51,7,0,7Z"
         id="path51" />
      <path
         d="M10.56,49.48c4.51,0,4.51-7,0-7s-4.51,7,0,7Z"
         id="path53" />
      <path
         d="M12.83,18.12c2.57,0,2.58-4,0-4s-2.58,4,0,4Z"
         id="path55" />
      <path
         d="M13,20.39c2.57,0,2.58-4,0-4s-2.58,4,0,4Z"
         id="path57" />
      <path
         d="M13.1,21v.19a2,2,0,0,0,4,0V21a2,2,0,0,0-4,0Z"
         id="path59" />
      <path
         d="M15.1,25.87c2.57,0,2.58-4,0-4s-2.58,4,0,4Z"
         id="path61" />
      <path
         d="M16.61,11.07a1,1,0,0,0,0-2,1,1,0,0,0,0,2Z"
         id="path63" />
      <path
         d="M21.71,16.55a1,1,0,0,0,0-2,1,1,0,0,0,0,2Z"
         id="path65" />
      <path
         d="M16.85,8.94V8.56a1,1,0,0,0-2,0v.38a1,1,0,0,0,2,0Z"
         id="path67" />
      <path
         d="M16.48,4.78V4.59a1,1,0,0,0-2,0v.19a1,1,0,0,0,2,0Z"
         id="path69" />
      <path
         d="M15.48,2a1,1,0,0,0,0-2,1,1,0,0,0,0,2Z"
         id="path71" />
      <path
         d="M10.56,2a1,1,0,0,0,0-2,1,1,0,0,0,0,2Z"
         id="path73" />
      <path
         d="M10.37,4.65a1,1,0,0,0,0-2,1,1,0,0,0,0,2Z"
         id="path75" />
      <path
         d="M7.35,6.16a1,1,0,0,0,0-2,1,1,0,0,0,0,2Z"
         id="path77" />
      <path
         d="M11.88,7.1h.38a1,1,0,0,0,0-2h-.38a1,1,0,0,0,0,2Z"
         id="path79" />
      <path
         d="M13.28,11l.57,1.32a1,1,0,0,0,1.37.36,1,1,0,0,0,.36-1.37L15,10a1,1,0,0,0-1.37-.36A1,1,0,0,0,13.28,11Z"
         id="path81" />
      <path
         d="M18.44,19.33v.19a1,1,0,0,0,2,0v-.19a1,1,0,0,0-2,0Z"
         id="path83" />
      <path
         d="M20.68,24.93l.19.38c.57,1.15,2.3.14,1.72-1l-.19-.38c-.57-1.15-2.3-.14-1.72,1Z"
         id="path85" />
      <path
         d="M22.13,29.38a2.48,2.48,0,0,0-.84,1.86,1,1,0,0,0,2,0,.56.56,0,0,1,.25-.44,1,1,0,0,0,0-1.42,1,1,0,0,0-1.41,0Z"
         id="path87" />
      <path
         d="M20.32,33.41l-.54,1.71c-.38,1.23,1.55,1.76,1.93.53l.54-1.71c.38-1.23-1.55-1.76-1.93-.53Z"
         id="path89" />
      <path
         d="M19.44,37h-.19a1,1,0,0,0,0,2h.19a1,1,0,0,0,0-2Z"
         id="path91" />
      <path
         d="M17.64,41.5l-.19.38c-.58,1.15,1.15,2.16,1.72,1l.19-.38c.58-1.15-1.15-2.16-1.72-1Z"
         id="path93" />
      <path
         d="M15.8,47.87v.56a1,1,0,0,0,2,0v-.56a1,1,0,0,0-2,0Z"
         id="path95" />
      <path
         d="M14.34,49.43a1,1,0,0,0,0-2,1,1,0,0,0,0,2Z"
         id="path97" />
      <path
         d="M14.34,41.31a1,1,0,0,0,0-2,1,1,0,0,0,0,2Z"
         id="path99" />
      <path
         d="M17.13,36.47a2,2,0,0,0,1-1.64,1,1,0,0,0-2,0c0-.13.19-.2,0-.08-1.15.58-.14,2.3,1,1.72Z"
         id="path101" />
      <path
         d="M17.37,31.29a1,1,0,0,0,0-2,1,1,0,0,0,0,2Z"
         id="path103" />
      <path
         d="M18.12,28.46a1,1,0,0,0,0-2,1,1,0,0,0,0,2Z"
         id="path105" />
      <path
         d="M19,24.94l.19-.38c.58-1.15-1.15-2.16-1.72-1l-.19.38c-.58,1.15,1.15,2.16,1.72,1Z"
         id="path107" />
      <path
         d="M17.93,16a1,1,0,0,0,0-2,1,1,0,0,0,0,2Z"
         id="path109" />
      <path
         d="M24.64,16.05l.57.94a1,1,0,0,0,1.72-1L26.37,15a1,1,0,0,0-1.73,1Z"
         id="path111" />
      <path
         d="M34.88,29.72v.19a1,1,0,0,0,2,0v-.19a1,1,0,0,0-2,0Z"
         id="path113" />
      <path
         d="M24,39.23a1,1,0,0,0,0-2,1,1,0,0,0,0,2Z"
         id="path115" />
      <path
         d="M22.85,29a1,1,0,0,0,0-2,1,1,0,0,0,0,2Z"
         id="path117" />
      <path
         d="M18.24,21.9l.57-.56c.93-.89-.48-2.3-1.41-1.41l-.58.56c-.93.89.49,2.3,1.42,1.41Z"
         id="path119" />
    </pattern>
    <linearGradient
       id="a964f849-fa65-4178-8cc4-fb8fb10b3617"
       x1="462.91"
       y1="660.68"
       x2="462.91"
       y2="559.69"
       xlink:href="#eb6c86d6-45fa-49e0-9a60-1b0612516196"
       gradientTransform="translate(-65.71,-135.63)" />
  </defs>
  <title
     id="title125">contact us</title>
  <circle
     cx="779.73"
     cy="238.18"
     r="99.96"
     fill="#3f3d56"
     id="circle285"
     style="fill:#3d3242;fill-opacity:1" />
  <path
     d="M874.64,426.59c-3.48-3.48-11.85-8.73-16-10.69-4.79-2.3-6.55-2.26-9.94.19-2.82,2-4.65,3.93-7.89,3.22s-9.66-5.55-15.87-11.74S813.91,395,813.22,391.71s1.21-5.08,3.23-7.9c2.44-3.39,2.51-5.15.19-9.94-2-4.15-7.19-12.5-10.7-16s-4.27-2.73-6.19-2a35.8,35.8,0,0,0-5.67,3c-3.48,2.33-5.43,4.27-6.8,7.19s-2.92,8.34,5.05,22.53a125.69,125.69,0,0,0,22.1,29.47l0,0,0,0A125.88,125.88,0,0,0,844,440.2c14.18,8,19.61,6.41,22.53,5.05s4.86-3.29,7.18-6.8a35.33,35.33,0,0,0,3-5.67C877.37,430.86,878.15,430.08,874.64,426.59Z"
     transform="translate(-52 -162.63)"
     fill="#6c63ff"
     id="path287"
     style="fill:#db7131;fill-opacity:1" />
  <path
     d="M831.73,300.86a100,100,0,1,0,99.95,99.95A100,100,0,0,0,831.73,300.86Zm0,186.62a86.67,86.67,0,1,1,86.67-86.67A86.67,86.67,0,0,1,831.73,487.48Z"
     transform="translate(-52 -162.63)"
     opacity="0.1"
     id="path289"
     style="fill:#3d3242;fill-opacity:1" />
  <circle
     cx="550.08"
     cy="390.01"
     r="99.96"
     fill="#3f3d56"
     id="circle291"
     style="fill:#3d3242;fill-opacity:1" />
  <path
     d="M658.93,522.44,629,552.89a.54.54,0,0,0,0,.78L650,576a3.62,3.62,0,0,1-2.55,6.17,3.64,3.64,0,0,1-2.56-1.06L624,558.86a.57.57,0,0,0-.8,0L618.11,564a22.37,22.37,0,0,1-16,6.73,22.86,22.86,0,0,1-16.28-6.92l-4.89-5a.57.57,0,0,0-.8,0l-20.84,22.2a3.61,3.61,0,0,1-5.11,0,3.6,3.6,0,0,1,0-5.11l20.92-22.28a.6.6,0,0,0,0-.78l-29.93-30.45a.55.55,0,0,0-.94.39v60.93a8.92,8.92,0,0,0,8.89,8.89H651a8.92,8.92,0,0,0,8.89-8.89V522.83A.55.55,0,0,0,658.93,522.44Z"
     transform="translate(-52 -162.63)"
     fill="#6c63ff"
     id="path293"
     style="fill:#db7131;fill-opacity:1" />
  <path
     d="M602.08,563.5A15.14,15.14,0,0,0,613,559l43.59-44.37a8.7,8.7,0,0,0-5.5-2H553.15a8.64,8.64,0,0,0-5.5,2L591.25,559A15.08,15.08,0,0,0,602.08,563.5Z"
     transform="translate(-52 -162.63)"
     fill="#6c63ff"
     id="path295"
     style="fill:#db7131;fill-opacity:1" />
  <circle
     cx="312.85"
     cy="315.36"
     r="99.96"
     fill="#3f3d56"
     id="circle299"
     style="fill:#3d3242;fill-opacity:1" />
  <path
     d="M364.85,430.16,325,522.1l3.72,3.72,36.14-15.94L401,525.82l3.72-3.72Z"
     transform="translate(-52 -162.63)"
     fill="#6c63ff"
     id="path301"
     style="fill:#db7131;fill-opacity:1" />
  <path
     d="M364.85,378A100,100,0,1,0,464.8,478,100,100,0,0,0,364.85,378Zm0,186.62A86.67,86.67,0,1,1,451.52,478,86.67,86.67,0,0,1,364.85,564.66Z"
     transform="translate(-52 -162.63)"
     opacity="0.1"
     id="path303" />
</svg>
